<svg width="27" height="34" viewBox="0 0 27 34" fill="none" xmlns="http://www.w3.org/2000/svg">
<path d="M21.6971 5.14855V2.97904H17.5402C16.7598 1.48181 15.2186 0.519531 13.5 0.519531C11.7814 0.519531 10.2402 1.48181 9.45985 2.97904H5.30288V5.14855H0V33.9995H27V5.14855H21.6971ZM7.36921 5.06732H10.8889L11.1221 4.34846C11.4599 3.30732 12.4155 2.60781 13.5 2.60781C14.5845 2.60781 15.5401 3.30732 15.8779 4.34846L16.1111 5.06732H19.6308V7.64287H7.36921V5.06732ZM24.9337 31.9113H2.06633V7.23684H5.30288V9.73115H21.6971V7.23684H24.9337V31.9113Z" fill="#ABB5BF"/>
<circle cx="13.5" cy="20.4995" r="3.86" stroke="#03A63C" stroke-width="2"/>
<rect x="6.47998" y="19.9596" width="4.32" height="2.16" fill="#03A63C"/>
<rect x="16.2" y="19.9596" width="4.32" height="2.16" fill="#03A63C"/>
<rect x="12.4199" y="28.0596" width="4.32" height="2.16" transform="rotate(-90 12.4199 28.0596)" fill="#03A63C"/>
<rect x="12.4199" y="17.2595" width="4.32" height="2.16" transform="rotate(-90 12.4199 17.2595)" fill="#03A63C"/>
</svg>
