<svg width="26" height="33" viewBox="0 0 26 33" fill="none" xmlns="http://www.w3.org/2000/svg">
<path d="M20.3034 4.28613V2.27732H16.4134C15.6833 0.891 14.241 0 12.6328 0C11.0246 0 9.58238 0.891 8.85219 2.27732H4.96225V4.28613H0V33H25.2656V4.28613H20.3034ZM6.89584 4.21092H10.1895L10.4077 3.54531C10.7238 2.58128 11.6179 1.93359 12.6328 1.93359C13.6477 1.93359 14.5419 2.58128 14.8579 3.54531L15.0762 4.21092H18.3698V6.59568H6.89584V4.21092ZM23.332 31.0664H1.93359V6.21973H4.96225V8.52927H20.3034V6.21973H23.332V31.0664Z" fill="#ABB5BF"/>
<path d="M11.6876 20.8701L9.6562 18.8615L8.29675 20.2364L11.6365 23.5386L16.942 18.6808L15.6364 17.2546L11.6876 20.8701Z" fill="#03A63C"/>
<path d="M12.6328 11.9641C8.1651 11.9641 4.5304 15.5989 4.5304 20.0665C4.5304 24.5342 8.1651 28.1689 12.6328 28.1689C17.1005 28.1689 20.7352 24.5342 20.7352 20.0665C20.7352 15.5989 17.1005 11.9641 12.6328 11.9641ZM12.6328 26.2353C9.23129 26.2353 6.46399 23.468 6.46399 20.0665C6.46399 16.6651 9.23129 13.8977 12.6328 13.8977C16.0343 13.8977 18.8016 16.6651 18.8016 20.0665C18.8016 23.468 16.0343 26.2353 12.6328 26.2353Z" fill="#03A63C"/>
</svg>
