<svg width="36" height="35" viewBox="0 0 36 35" fill="none" xmlns="http://www.w3.org/2000/svg">
<path d="M33.5133 16.4322C34.2323 17.4042 33.6497 18.1919 32.211 18.1919H30.5034L31.2223 19.1271L35.412 24.5784C36.3001 25.7339 35.5804 26.6703 33.8042 26.6703H25.424H23.0324C23.4555 25.7366 23.3561 24.5463 22.2653 23.1272L19.7073 19.799C21.1356 18.8899 22.0295 17.2276 20.3924 15.0158L19.3875 13.658L20.7276 11.8474L22.1308 9.95216H20.4999C19.5501 9.95216 19.1652 9.32806 19.6399 8.55838L22.102 4.56782L24.564 0.577263C25.0387 -0.192421 25.8089 -0.192421 26.2836 0.577263L28.7456 4.56782L31.2077 8.55838C31.6824 9.32806 31.2974 9.95216 30.3481 9.95216H28.7167L30.12 11.8474L33.5133 16.4322ZM0.111508 33.6484C0.111508 33.3484 0.356169 33.1055 0.657471 33.1055H8.5865V29.1172H12.4591V33.1055H23.7036V29.1172H27.5762V33.1055H35.454C35.7557 33.1055 36 33.3484 36 33.6484V34.4571C36 34.7571 35.7557 35 35.454 35H0.657471C0.355784 35 0.111508 34.7571 0.111508 34.4571V33.6484ZM18.4578 16.4322C19.1772 17.4042 18.5942 18.1919 17.1555 18.1919H15.4479L16.1668 19.1271L20.3566 24.5784C21.2447 25.7339 20.5249 26.6703 18.7487 26.6703H10.3685H1.98829C0.212072 26.6703 -0.507665 25.7335 0.380445 24.5784L4.57016 19.1271L5.28913 18.1919H3.58149C2.14317 18.1919 1.55984 17.4042 2.27919 16.4322L5.67249 11.8478L7.07575 9.95254H5.44441C4.49465 9.95254 4.10973 9.32844 4.5848 8.55876L7.04647 4.5682L9.50852 0.57766C9.98359 -0.192023 10.7534 -0.192023 11.2285 0.57766L13.6905 4.5682L16.1522 8.55876C16.6269 9.32844 16.242 9.95254 15.2926 9.95254H13.6612L15.0645 11.8478L18.4578 16.4322Z" fill="#03A63C"/>
</svg>
