<svg width="28" height="34" viewBox="0 0 28 34" fill="none" xmlns="http://www.w3.org/2000/svg">
<path fill-rule="evenodd" clip-rule="evenodd" d="M23.972 5.17725H26.807C26.807 5.17725 28 5.21898 28 6.91462V31.5123C28 31.5123 27.9163 33.794 25.8858 33.794H1.95812C1.95812 33.794 0.0113264 33.5845 0.0113264 31.8052V7.33321C0.0113264 7.33321 -0.239831 5.05154 1.62324 5.05154H4.19807V8.90313C4.19807 8.90313 4.07235 12.5251 8.4268 12.5251H19.5008C19.5008 12.5251 23.939 12.7345 23.939 8.04522V5.14926" fill="#03A63C"/>
<path d="M7.26288 4.45721C7.26288 3.58055 7.9735 2.86993 8.85016 2.86993H11.2701L11.2693 2.80357C11.2693 1.25521 12.5245 0 14.0729 0C15.6212 0 16.8765 1.25521 16.8765 2.80357L16.8756 2.86993H19.2956C20.1723 2.86993 20.8829 3.58083 20.8829 4.45721V7.26723C20.8829 8.14389 20.1723 8.85451 19.2956 8.85451H8.85016C7.9735 8.85451 7.26288 8.14389 7.26288 7.26723V4.45721Z" fill="#03A63C"/>
<path d="M14.5882 25.066L22.1822 17.4012L24.2681 19.4681L14.5977 29.2287L8.69067 23.3217L10.7671 21.2452L14.5882 25.066Z" fill="#EDF1F5"/>
</svg>
