<svg width="32" height="39" viewBox="0 0 32 39" fill="none" xmlns="http://www.w3.org/2000/svg">
<path fill-rule="evenodd" clip-rule="evenodd" d="M15.48 38.0163C17.0018 38.0163 18.6068 37.2165 18.6068 37.2165C18.6068 37.2165 26.4723 32.6572 28.8831 31.0521C31.2939 29.4467 31.16 26.3584 31.16 26.3584V5.95536C31.1648 4.95824 30.5666 4.26108 29.3656 3.86384C29.3656 3.86384 17.2032 0.08966 15.5917 0C13.9807 0.08966 1.79576 3.86384 1.79576 3.86384C0.594799 4.26108 -0.00347575 4.95824 0.00134901 5.95536V26.3584C0.00134901 26.3584 -0.132942 29.4467 2.27823 31.0521C4.689 32.6572 12.5542 37.2165 12.5542 37.2165C12.5542 37.2165 14.1596 38.0163 15.6814 38.0163" fill="#03A63C"/>
<path fill-rule="evenodd" clip-rule="evenodd" d="M15.7242 10.586C11.5283 10.586 8.12685 13.987 8.12685 18.1834C8.12685 22.3797 11.5283 25.7807 15.7242 25.7807C19.9202 25.7807 23.3216 22.3797 23.3216 18.1834C23.3216 13.9874 19.9202 10.586 15.7242 10.586ZM15.7242 8.53467C21.0532 8.53467 25.3733 12.8544 25.3733 18.1834C25.3733 23.5123 21.0536 27.8325 15.7242 27.8325C10.3953 27.8325 6.07553 23.5127 6.07553 18.1834C6.07553 12.8544 10.3953 8.53467 15.7242 8.53467ZM13.0143 17.3065L14.5209 18.813L18.2612 15.0726L19.7119 16.5232L14.5209 21.7143L11.5637 18.7571L13.0143 17.3065Z" fill="white"/>
</svg>
