<svg width="35" height="33" viewBox="0 0 35 33" fill="none" xmlns="http://www.w3.org/2000/svg">
<path fill-rule="evenodd" clip-rule="evenodd" d="M5.45365 9.69939H2.30748C1.17003 9.69939 0.706666 8.81763 1.25598 7.82882L3.22 4.29255L5.18402 0.756618C5.74442 -0.252377 6.7273 -0.252035 7.2877 0.756618L9.25172 4.29255L10.0194 5.67471L9.49605 6.61699C8.98313 7.54047 8.85386 8.55529 9.06145 9.4627L9.11552 9.69906H7.07803V12.0286C7.07803 12.2804 6.87113 12.4846 6.61605 12.4846H5.91563C5.66055 12.4846 5.45365 12.2804 5.45365 12.0286V9.69939ZM17.5573 9.69939V13.1519C17.5573 13.4036 17.3504 13.6078 17.0953 13.6078H16.3949C16.1398 13.6078 15.9329 13.4036 15.9329 13.1519V9.69939H12.7867C11.649 9.69939 11.1859 8.81763 11.7349 7.82882L13.6989 4.29255L15.6629 0.756618C16.2233 -0.252377 17.2062 -0.252035 17.7666 0.756618L19.7306 4.29255L21.6947 7.82882C22.2436 8.81763 21.7806 9.69939 20.6428 9.69939H17.5573ZM29.4045 14.7546C29.4381 14.8347 29.4568 14.9226 29.4568 15.0146V17.7772C29.4568 18.152 29.1491 18.4558 28.7692 18.4558H27.9915C27.6117 18.4558 27.3039 18.152 27.3039 17.7772V15.0146C27.3039 14.9226 27.3226 14.8347 27.3562 14.7546H24.0191C22.6061 14.7546 22.0329 13.6201 22.698 12.4223L24.8786 8.49579L27.0592 4.5696C27.7475 3.33007 29.0129 3.33007 29.7015 4.5696L31.8821 8.49579L34.0627 12.4223C34.7282 13.6201 34.1546 14.7546 32.7416 14.7546H29.4045ZM11.4032 25.2711C11.4032 24.7047 11.8683 24.2453 12.4426 24.2453C13.0169 24.2453 13.482 24.7043 13.482 25.2711C13.482 25.8378 13.0169 26.2968 12.4426 26.2968C11.8683 26.2968 11.4032 25.8378 11.4032 25.2711ZM7.49807 22.9521C7.49807 22.3857 7.96317 21.9264 8.53744 21.9264C9.11171 21.9264 9.57681 22.3857 9.57681 22.9521C9.57681 23.5185 9.11171 23.9779 8.53744 23.9779C7.96317 23.9779 7.49807 23.5185 7.49807 22.9521ZM3.90378 25.2653C3.90378 24.6989 4.36888 24.2395 4.94315 24.2395C5.51742 24.2395 5.98252 24.6985 5.98252 25.2653C5.98252 25.832 5.51742 26.291 4.94315 26.291C4.36888 26.291 3.90378 25.832 3.90378 25.2653ZM33.9137 29.3803C33.8957 30.7929 34.2689 33 31.8821 33H18.1347H2.05552C0.669238 33 0.0343203 32.3176 0.0918511 29.3803H33.9137ZM1.07438 13.9926H7.08634H13.0983L17.4003 17.1499L21.7019 20.3075H28.187H32.7333C33.5498 20.3879 34.0867 21.5005 33.9525 22.9918V24.4119H27.4983H20.3247L16.0227 21.2543L11.721 18.097H6.39771H0.0270435V16.0448C-0.104653 14.809 0.244686 14.1249 1.07438 13.9926ZM32.8799 25.609H18.2407L10.7395 20.0158H0.0984349V25.7701C0.0984349 25.7701 -0.134114 28.0436 2.25861 28.0227C4.94939 27.9995 32.8393 28.0227 32.8393 28.0227C32.8393 28.0227 33.9418 27.9383 33.9418 26.9347V25.6087L32.8799 25.609Z" fill="#03A63C"/>
</svg>
