<svg width="37" height="38" viewBox="0 0 37 38" fill="none" xmlns="http://www.w3.org/2000/svg">
<path fill-rule="evenodd" clip-rule="evenodd" d="M8.81334 8.32388H15.7652C15.7652 8.32388 15.867 7.01829 14.6238 6.97817C14.6238 6.97817 13.4145 1.97838 9.82541 1.89776C9.82541 1.89776 9.71616 0.537934 9.07823 0.529388C8.4403 0.537934 8.31585 1.89776 8.31585 1.89776C4.7268 1.97838 3.51743 6.97817 3.51743 6.97817C2.27426 7.01829 2.37608 8.32388 2.37608 8.32388H7.81501H8.81334Z" fill="#03A63C"/>
<path fill-rule="evenodd" clip-rule="evenodd" d="M18.429 21.8658H25.3809C25.3809 21.8658 25.4826 20.5602 24.2395 20.5201C24.2395 20.5201 23.0301 15.5203 19.4411 15.4397C19.4411 15.4397 19.3322 14.0802 18.6943 14.0717C18.0564 14.0802 17.9319 15.4397 17.9319 15.4397C14.3428 15.5203 13.1335 20.5201 13.1335 20.5201C11.8903 20.5602 11.9925 21.8658 11.9925 21.8658H17.4311H18.429Z" fill="#03A63C"/>
<path fill-rule="evenodd" clip-rule="evenodd" d="M28.0889 7.79411H35.0407C35.0407 7.79411 35.1425 6.48852 33.8994 6.44839C33.8994 6.44839 32.69 1.44861 29.101 1.36798C29.101 1.36798 28.9921 0.00854537 28.3542 0C27.7162 0.00854537 27.5918 1.36798 27.5918 1.36798C24.0027 1.44861 22.7934 6.44839 22.7934 6.44839C21.5502 6.48852 21.6524 7.79411 21.6524 7.79411H27.091H28.0889Z" fill="#03A63C"/>
<path d="M13.7679 10.0197C13.4406 13.1956 11.3741 15.6418 8.9019 15.6418C6.42969 15.6418 4.38661 13.1956 4.05928 10.0197H13.7679Z" fill="#03A63C"/>
<path d="M8.41204 3.11112C8.41204 2.87854 8.6004 2.68979 8.83335 2.68979H9.25469C9.48727 2.68979 9.676 2.87817 9.676 3.11112V4.28889C9.676 4.52148 9.48727 4.71021 9.25469 4.71021H8.83335C8.60077 4.71021 8.41204 4.52148 8.41204 4.28889V3.11112Z" fill="#EDF1F5"/>
<path d="M23.3839 23.7351C23.0566 26.911 20.9901 30.1323 18.5179 30.1323C16.0457 30.1323 14.0026 26.911 13.6753 23.7351H23.3839Z" fill="#03A63C"/>
<path d="M18.0274 16.6526C18.0274 16.42 18.2158 16.2313 18.4487 16.2313H18.87C19.1026 16.2313 19.2914 16.42 19.2914 16.6526V17.8304C19.2914 18.0629 19.1026 18.2517 18.87 18.2517H18.4487C18.2161 18.2517 18.0274 18.0633 18.0274 17.8304V16.6526Z" fill="#EDF1F5"/>
<path fill-rule="evenodd" clip-rule="evenodd" d="M18.7771 37.0512C18.7771 37.0512 16.0043 37.0512 12.7827 37.0512C9.56109 37.0512 9.66066 34.5277 10.1596 33.4799C10.6586 32.4318 13.0822 29.8307 13.0822 29.8307C14.9785 33.1522 18.6054 32.7532 18.6054 32.7532C18.6054 32.7532 22.2045 33.1526 24.1009 29.8307C24.1009 29.8307 26.524 32.4318 27.0234 33.4799C27.5224 34.5277 27.6223 37.0512 24.4003 37.0512C21.1783 37.0512 18.4056 37.0512 18.4056 37.0512" fill="#03A63C"/>
<path fill-rule="evenodd" clip-rule="evenodd" d="M26.6317 18.1375C26.6317 18.1375 28.8334 19.5846 30.7992 18.2475C33.3383 16.5205 33.8213 16.1018 33.8213 16.1018C33.8213 16.1018 36.0952 18.2259 36.6439 19.7228C37.193 21.2198 36.9434 28.6397 36.9434 28.6397C36.9434 28.6397 36.9215 29.8874 35.8455 29.8874C34.7695 29.8874 28.5254 29.8874 28.5254 29.8874C28.5254 29.8874 25.4034 28.8114 25.6033 26.6658C25.8028 24.5198 27.4777 24.1423 28.1762 23.2443C28.8747 22.3463 28.8249 20.8709 27.9767 19.9725C27.1281 19.0745 26.7409 18.7435 26.4916 18.4938C26.242 18.2441 26.6317 18.1375 26.6317 18.1375Z" fill="#03A63C"/>
<path fill-rule="evenodd" clip-rule="evenodd" d="M10.3678 18.1375C10.3678 18.1375 8.16604 19.5846 6.20061 18.2475C3.66152 16.5205 3.17853 16.1018 3.17853 16.1018C3.17853 16.1018 0.904726 18.2259 0.355964 19.7228C-0.192797 21.2198 0.0564937 28.6397 0.0564937 28.6397C0.0564937 28.6397 0.0784209 29.8874 1.15439 29.8874C2.23037 29.8874 8.47442 29.8874 8.47442 29.8874C8.47442 29.8874 11.5965 28.8114 11.3969 26.6658C11.1971 24.5198 9.52253 24.1423 8.82366 23.2443C8.1248 22.3463 8.17497 20.8709 9.02356 19.9725C9.87178 19.0745 10.2589 18.7435 10.5086 18.4938C10.7579 18.2441 10.3678 18.1375 10.3678 18.1375Z" fill="#03A63C"/>
<path d="M33.0438 9.55759C32.7165 12.7335 30.65 15.9543 28.1778 15.9543C25.7056 15.9543 23.6625 12.7335 23.3352 9.55759H33.0438Z" fill="#03A63C"/>
<path d="M27.6873 2.58004C27.6873 2.34745 27.8756 2.15872 28.1086 2.15872H28.5299C28.7625 2.15872 28.9512 2.34745 28.9512 2.58004V3.75783C28.9512 3.99041 28.7625 4.17914 28.5299 4.17914H28.1086C27.876 4.17914 27.6873 3.99078 27.6873 3.75783V2.58004Z" fill="#EDF1F5"/>
</svg>
