<svg width="95" height="103" viewBox="0 0 95 103" fill="none" xmlns="http://www.w3.org/2000/svg">
<mask id="path-1-inside-1" fill="white">
<path fill-rule="evenodd" clip-rule="evenodd" d="M86.9637 40.9744C90.1919 40.9744 91.5 39.2063 89.8859 37.0245L82.2718 26.7338L79.1232 22.4794H82.7836C84.9139 22.4794 85.7776 21.0785 84.7124 19.3508L79.1889 10.3931L73.6644 1.43544C72.5984 -0.292282 70.8711 -0.292282 69.8051 1.43544L64.2806 10.3931L58.757 19.3508C57.6911 21.0785 58.5548 22.4794 60.6859 22.4794H64.3463L61.1977 26.7338L53.5836 37.0245C51.9695 39.2063 53.2784 40.9744 56.5058 40.9744H60.3374L58.7242 43.0737L49.3231 55.3105C47.3304 57.9034 48.9453 60.006 52.9309 60.006H68.3872V67.6391H76.1331V60.006H90.5386C94.5242 60.006 96.1391 57.9042 94.1464 55.3105L84.7453 43.0737L83.132 40.9744H86.9637Z"/>
</mask>
<path fill-rule="evenodd" clip-rule="evenodd" d="M86.9637 40.9744C90.1919 40.9744 91.5 39.2063 89.8859 37.0245L82.2718 26.7338L79.1232 22.4794H82.7836C84.9139 22.4794 85.7776 21.0785 84.7124 19.3508L79.1889 10.3931L73.6644 1.43544C72.5984 -0.292282 70.8711 -0.292282 69.8051 1.43544L64.2806 10.3931L58.757 19.3508C57.6911 21.0785 58.5548 22.4794 60.6859 22.4794H64.3463L61.1977 26.7338L53.5836 37.0245C51.9695 39.2063 53.2784 40.9744 56.5058 40.9744H60.3374L58.7242 43.0737L49.3231 55.3105C47.3304 57.9034 48.9453 60.006 52.9309 60.006H68.3872V67.6391H76.1331V60.006H90.5386C94.5242 60.006 96.1391 57.9042 94.1464 55.3105L84.7453 43.0737L83.132 40.9744H86.9637Z" fill="white"/>
<path d="M89.8859 37.0245L92.2976 35.2402L92.2975 35.2401L89.8859 37.0245ZM82.2718 26.7338L84.6835 24.9494L84.6832 24.9491L82.2718 26.7338ZM79.1232 22.4794V19.4794H73.1706L76.7117 24.2641L79.1232 22.4794ZM84.7124 19.3508L87.2662 17.7764L87.266 17.7762L84.7124 19.3508ZM79.1889 10.3931L81.7424 8.81847L81.7423 8.81829L79.1889 10.3931ZM73.6644 1.43544L76.2179 -0.13934L76.2176 -0.13982L73.6644 1.43544ZM69.8051 1.43544L67.252 -0.13982L67.2517 -0.139346L69.8051 1.43544ZM64.2806 10.3931L61.7272 8.81829L61.7271 8.81847L64.2806 10.3931ZM58.757 19.3508L61.3102 20.926L61.3106 20.9254L58.757 19.3508ZM64.3463 22.4794L66.7577 24.2641L70.2989 19.4794H64.3463V22.4794ZM61.1977 26.7338L58.7862 24.9491L58.786 24.9494L61.1977 26.7338ZM53.5836 37.0245L51.172 35.2401L51.1719 35.2402L53.5836 37.0245ZM60.3374 40.9744L62.7162 42.8024L66.4264 37.9744H60.3374V40.9744ZM58.7242 43.0737L56.3455 41.2456L56.3452 41.246L58.7242 43.0737ZM49.3231 55.3105L51.7018 57.1386L51.7021 57.1382L49.3231 55.3105ZM68.3872 60.006H71.3872V57.006H68.3872V60.006ZM68.3872 67.6391H65.3872V70.6391H68.3872V67.6391ZM76.1331 67.6391V70.6391H79.1331V67.6391H76.1331ZM76.1331 60.006V57.006H73.1331V60.006H76.1331ZM94.1464 55.3105L91.7674 57.1382L91.7674 57.1382L94.1464 55.3105ZM84.7453 43.0737L87.1243 41.246L87.124 41.2457L84.7453 43.0737ZM83.132 40.9744V37.9744H77.0431L80.7533 42.8024L83.132 40.9744ZM87.4741 38.8087C87.6615 39.0619 87.6054 39.0935 87.5836 38.9021C87.5717 38.7987 87.5735 38.6507 87.6181 38.4789C87.6631 38.3056 87.74 38.1535 87.8289 38.0334C88.0024 37.7989 88.1383 37.7887 87.9869 37.8436C87.8388 37.8973 87.5127 37.9744 86.9637 37.9744V43.9744C88.9333 43.9744 91.2786 43.4588 92.6524 41.6018C94.2752 39.4083 93.5278 36.9031 92.2976 35.2402L87.4741 38.8087ZM79.8602 28.5182L87.4742 38.8088L92.2975 35.2401L84.6835 24.9494L79.8602 28.5182ZM76.7117 24.2641L79.8604 28.5185L84.6832 24.9491L81.5346 20.6947L76.7117 24.2641ZM82.7836 19.4794H79.1232V25.4794H82.7836V19.4794ZM82.1587 20.9251C82.2421 21.0603 82.1907 21.0346 82.1734 20.852C82.1536 20.6437 82.1907 20.3161 82.3926 19.9886C82.8059 19.3183 83.2996 19.4794 82.7836 19.4794V25.4794C84.398 25.4794 86.3886 24.9401 87.5 23.1373C88.6593 21.257 88.1428 19.1985 87.2662 17.7764L82.1587 20.9251ZM76.6353 11.9677L82.1589 20.9254L87.266 17.7762L81.7424 8.81847L76.6353 11.9677ZM71.111 3.01022L76.6354 11.9679L81.7423 8.81829L76.2179 -0.13934L71.111 3.01022ZM72.3582 3.0107C72.4386 2.8804 72.4576 2.90356 72.356 2.97038C72.2427 3.04482 72.0259 3.13965 71.7348 3.13965C71.4436 3.13965 71.2268 3.04482 71.1136 2.97038C71.0119 2.90356 71.0309 2.8804 71.1113 3.0107L76.2176 -0.13982C75.324 -1.5881 73.7842 -2.86035 71.7348 -2.86035C69.6853 -2.86035 68.1455 -1.5881 67.252 -0.13982L72.3582 3.0107ZM66.8341 11.9679L72.3585 3.01023L67.2517 -0.139346L61.7272 8.81829L66.8341 11.9679ZM61.3106 20.9254L66.8342 11.9677L61.7271 8.81847L56.2035 17.7762L61.3106 20.9254ZM60.6859 19.4794C60.1689 19.4794 60.6628 19.3179 61.0762 19.9886C61.2783 20.3164 61.3154 20.6443 61.2955 20.8528C61.2781 21.0356 61.2267 21.0613 61.3102 20.926L56.2039 17.7755C55.3267 19.1973 54.8091 21.2562 55.9689 23.1374C57.0805 24.9404 59.0717 25.4794 60.6859 25.4794V19.4794ZM64.3463 19.4794H60.6859V25.4794H64.3463V19.4794ZM63.6091 28.5185L66.7577 24.2641L61.9349 20.6947L58.7862 24.9491L63.6091 28.5185ZM55.9953 38.8088L63.6093 28.5182L58.786 24.9494L51.172 35.2401L55.9953 38.8088ZM56.5058 37.9744C55.957 37.9744 55.6311 37.8973 55.483 37.8436C55.3316 37.7887 55.4674 37.7989 55.6407 38.0331C55.7296 38.1532 55.8065 38.3052 55.8515 38.4785C55.8961 38.6502 55.8979 38.7982 55.8861 38.9017C55.8643 39.0933 55.8081 39.0618 55.9954 38.8087L51.1719 35.2402C49.9413 36.9036 49.1947 39.4089 50.8176 41.6021C52.1914 43.4587 54.5363 43.9744 56.5058 43.9744V37.9744ZM60.3374 37.9744H56.5058V43.9744H60.3374V37.9744ZM61.1029 44.9017L62.7162 42.8024L57.9587 39.1464L56.3455 41.2456L61.1029 44.9017ZM51.7021 57.1382L61.1032 44.9013L56.3452 41.246L46.9442 53.4828L51.7021 57.1382ZM52.9309 57.006C52.1823 57.006 51.6829 56.9053 51.3943 56.8046C51.0982 56.7012 51.1407 56.6422 51.2641 56.8029C51.3298 56.8883 51.3952 57.0085 51.4345 57.1543C51.4736 57.2991 51.4734 57.4188 51.4648 57.491C51.4499 57.6175 51.4257 57.4978 51.7018 57.1386L46.9445 53.4823C45.5089 55.3503 44.6916 58.0963 46.5061 60.4582C48.0164 62.4241 50.616 63.006 52.9309 63.006V57.006ZM68.3872 57.006H52.9309V63.006H68.3872V57.006ZM71.3872 67.6391V60.006H65.3872V67.6391H71.3872ZM76.1331 64.6391H68.3872V70.6391H76.1331V64.6391ZM73.1331 60.006V67.6391H79.1331V60.006H73.1331ZM90.5386 57.006H76.1331V63.006H90.5386V57.006ZM91.7674 57.1382C92.0437 57.4978 92.0196 57.6177 92.0047 57.4913C91.9961 57.4192 91.9959 57.2995 92.035 57.1547C92.0743 57.0088 92.1398 56.8886 92.2055 56.8031C92.3291 56.6422 92.3716 56.7012 92.0755 56.8046C91.7868 56.9053 91.2874 57.006 90.5386 57.006V63.006C92.8532 63.006 95.4528 62.4245 96.9633 60.4587C98.7781 58.0967 97.9604 55.3506 96.5253 53.4827L91.7674 57.1382ZM82.3663 44.9013L91.7674 57.1382L96.5254 53.4828L87.1243 41.246L82.3663 44.9013ZM80.7533 42.8024L82.3665 44.9017L87.124 41.2457L85.5108 39.1464L80.7533 42.8024ZM86.9637 37.9744H83.132V43.9744H86.9637V37.9744Z" fill="#03A63C" mask="url(#path-1-inside-1)"/>
<path d="M63.0714 36.0398L42.3633 23.7554L39.2045 102.025L63.0714 92.5484V36.0398Z" fill="white"/>
<path fill-rule="evenodd" clip-rule="evenodd" d="M33.1006 94.0083L64.2005 75.0149V36.1934L33.1006 54.6347V94.0083Z" stroke="#D1D7DD" stroke-width="3" stroke-miterlimit="3.8637" stroke-linecap="round" stroke-linejoin="round"/>
<path fill-rule="evenodd" clip-rule="evenodd" d="M33.0999 94.0083L2 75.0149V36.1934L33.0999 54.6347V94.0083Z" stroke="#D1D7DD" stroke-width="3" stroke-miterlimit="3.8637" stroke-linecap="round" stroke-linejoin="round"/>
<path d="M64.1988 36.2309L33.1361 17.7891L2.03625 36.2309" stroke="#D1D7DD" stroke-width="3" stroke-miterlimit="3.8637" stroke-linecap="round" stroke-linejoin="round"/>
</svg>
